<?xml version="1.0" encoding="iso-8859-1"?>
<!-- Uploaded to: SVG Repo, www.svgrepo.com, Generator: SVG Repo Mixer Tools -->
<svg fill="#000000" height="800px" width="800px" version="1.1" id="Layer_1" xmlns="http://www.w3.org/2000/svg" xmlns:xlink="http://www.w3.org/1999/xlink" 
	 viewBox="0 0 512 512" xml:space="preserve">
<g>
	<g>
		<path d="M149.078,301.555v144.302c0,7.532,6.105,13.637,13.637,13.637s13.637-6.105,13.637-13.637V301.555H149.078z"/>
	</g>
</g>
<g>
	<g>
		<path d="M335.254,301.555v144.302c0,7.532,6.105,13.637,13.637,13.637s13.637-6.105,13.637-13.637V301.555H335.254z"/>
	</g>
</g>
<g>
	<g>
		<path d="M199.172,301.555v164.495c0,14.355,11.638,25.991,25.992,25.991s25.992-11.636,25.992-25.991V301.555H199.172z"/>
	</g>
</g>
<g>
	<g>
		<path d="M262.378,301.555v164.495c0,14.355,11.638,25.991,25.992,25.991s25.992-11.636,25.992-25.991V301.555H262.378z"/>
	</g>
</g>
<g>
	<g>
		<circle cx="256.764" cy="44.89" r="44.89"/>
	</g>
</g>
<g>
	<g>
		<path d="M397.701,204.82c-3.034-6.419-28.863-61.056-32.014-67.722c-9.479-20.052-29.935-33.008-52.116-33.008H199.674
			c-22.179,0-42.635,12.957-52.116,33.008c-3.147,6.656-28.973,61.29-32.014,67.722c-6.769,14.323,3.681,30.916,19.583,30.916
			c0.017,0,0.036,0,0.054-0.001l83.308-0.209c11.963-0.029,21.636-9.751,21.605-21.714c-0.03-11.943-9.722-21.605-21.658-21.605
			c-0.018,0-0.037,0-0.055,0.001l-49.016,0.123c9.78-20.689,7.712-16.315,17.359-36.719c0.034-0.072,0.678-0.709,1.707-1.572
			c1.945-1.634,4.66-1.992,6.962-0.918c2.302,1.073,3.77,3.383,3.77,5.923v13.367l19.169-0.049c0.035,0,0.072,0,0.106,0
			c17.177,0,31.925,10.439,38.231,25.331c4.285-9.963,12.36-17.908,22.41-22.028c4.473-13.848,8.528-26.408,13.179-40.809
			c1.51-4.675,6.524-7.237,11.195-5.731c4.675,1.51,7.24,6.523,5.73,11.196c-5.37,16.626-7.799,24.15-10.415,32.249h15.121v-13.753
			c0-2.65,1.59-5.043,4.034-6.068c2.444-1.026,5.265-0.486,7.157,1.37c0.895,0.878,1.438,1.484,1.441,1.492
			c9.739,20.601,7.622,16.123,17.399,36.805h-49.111c-11.963,0-21.66,9.697-21.66,21.66c0,11.901,9.6,21.551,21.477,21.651
			l83.491,0.009C393.99,235.736,404.488,219.176,397.701,204.82z"/>
	</g>
</g>
<g>
	<g>
		<path d="M470.544,255.506c-1.571,0-416.534,0-429.088,0c-7.254,0-13.135,5.881-13.135,13.135s5.881,13.135,13.135,13.135h14.139
			v210.065c0,11.133,9.026,20.159,20.159,20.159c11.133,0,20.159-9.026,20.159-20.159V281.777c14.377,0,306.504,0,321.359,0v210.064
			c0,11.133,9.026,20.159,20.159,20.159c11.133,0,20.159-9.026,20.159-20.159V281.777h12.953c7.254,0,13.135-5.881,13.135-13.135
			C483.679,261.387,477.798,255.506,470.544,255.506z"/>
	</g>
</g>
</svg>